<?xml version="1.0" encoding="UTF-8"?>
<svg id="graphics" xmlns="http://www.w3.org/2000/svg" viewBox="0 0 2000 2000">
  <defs>
    <style>
      .cls-1 {
        fill: #fff;
      }

      .cls-2 {
        fill: #76b900;
      }
    </style>
  </defs>
  <rect class="cls-2" width="2000" height="2000"/>
  <g>
    <path id="Eye_Mark" data-name="Eye Mark" class="cls-1" d="m432.46621,592.24442v-24.83148c2.41089-.17178,4.84579-.30027,7.32704-.37798,67.91571-2.13463,112.47131,58.35537,112.47131,58.35537,0,0-48.12275,66.84021-99.72027,66.84021-7.43167,0-14.08199-1.19802-20.07808-3.21013v-75.29812c26.44022,3.19376,31.75515,14.87221,47.65514,41.36786l35.35244-29.80735s-25.80541-33.84649-69.308-33.84649c-4.73382,0-9.25716.33454-13.69958.80812m0-82.02768v37.09104c2.43781-.19274,4.87868-.348,7.32704-.4361,94.44709-3.18183,155.9768,77.45662,155.9768,77.45662,0,0-70.67627,85.94145-144.30417,85.94145-6.74608,0-13.0634-.62287-18.99968-1.67314v22.92691c5.07738.64536,10.33403,1.02472,15.82228,1.02472,68.52069,0,118.07015-34.9893,166.05401-76.40495,7.95007,6.36957,40.52099,21.86484,47.21919,28.65711-45.62529,38.19056-151.94509,68.97331-212.22003,68.97331-5.80794,0-11.3947-.35106-16.87545-.8768v32.22124h260.42951v-274.90141h-260.42951Zm0,178.80367v19.5762c-63.37309-11.29909-80.96274-77.17577-80.96274-77.17577,0,0,30.42726-33.71357,80.96274-39.17642v21.47787c-.03885,0-.06425-.0104-.09866-.0104-26.51792-3.18489-47.23846,21.5929-47.23846,21.5929,0,0,11.60824,41.71136,47.33712,53.71563m-112.55804-60.45421s37.56019-55.42303,112.55804-61.15326v-20.10516c-83.06739,6.66684-155.00302,77.02051-155.00302,77.02051,0,0,40.74049,117.78487,155.00302,128.56862v-21.37339c-83.84873-10.54926-112.55804-102.95732-112.55804-102.95732Z"/>
    <path id="Eye_Mark-2" data-name="Eye Mark" class="cls-1" d="m432.46621,592.24442v-24.83148c2.41089-.17178,4.84579-.30027,7.32704-.37798,67.91571-2.13463,112.47131,58.35537,112.47131,58.35537,0,0-48.12275,66.84021-99.72027,66.84021-7.43167,0-14.08199-1.19802-20.07808-3.21013v-75.29812c26.44022,3.19376,31.75515,14.87221,47.65514,41.36786l35.35244-29.80735s-25.80541-33.84649-69.308-33.84649c-4.73382,0-9.25716.33454-13.69958.80812m0-82.02768v37.09104c2.43781-.19274,4.87868-.348,7.32704-.4361,94.44709-3.18183,155.9768,77.45662,155.9768,77.45662,0,0-70.67627,85.94145-144.30417,85.94145-6.74608,0-13.0634-.62287-18.99968-1.67314v22.92691c5.07738.64536,10.33403,1.02472,15.82228,1.02472,68.52069,0,118.07015-34.9893,166.05401-76.40495,7.95007,6.36957,40.52099,21.86484,47.21919,28.65711-45.62529,38.19056-151.94509,68.97331-212.22003,68.97331-5.80794,0-11.3947-.35106-16.87545-.8768v32.22124h260.42951v-274.90141h-260.42951Zm0,178.80367v19.5762c-63.37309-11.29909-80.96274-77.17577-80.96274-77.17577,0,0,30.42726-33.71357,80.96274-39.17642v21.47787c-.03885,0-.06425-.0104-.09866-.0104-26.51792-3.18489-47.23846,21.5929-47.23846,21.5929,0,0,11.60824,41.71136,47.33712,53.71563m-112.55804-60.45421s37.56019-55.42303,112.55804-61.15326v-20.10516c-83.06739,6.66684-155.00302,77.02051-155.00302,77.02051,0,0,40.74049,117.78487,155.00302,128.56862v-21.37339c-83.84873-10.54926-112.55804-102.95732-112.55804-102.95732Z"/>
    <path id="NVIDIA" class="cls-1" d="m1161.99944,562.1624l.01813,180.44204h50.95881v-180.43894l-50.97694-.0031Zm-400.88483-.2452v180.68724h51.41356v-137.19819l39.82918.01364c13.19414,0,22.59063,3.28308,28.94847,10.06699,8.06075,8.58975,11.35065,22.43626,11.35065,47.7771v79.34047l49.80603-.00908.00908-99.81953c0-71.25026-45.41732-80.85863-89.84795-80.85863h-91.50902m482.93769.25124v180.43599h82.65516c44.0385,0,58.41168-7.32438,73.95645-23.74549,10.98889-11.52765,18.0876-36.83377,18.0876-64.48898,0-25.36192-6.00894-47.98897-16.4938-62.07914-18.87915-25.19701-46.07883-30.12239-86.68437-30.12239h-71.52104Zm50.54993,39.28887h21.91099c31.78733,0,52.34523,14.27476,52.34523,51.31281,0,37.0472-20.55789,51.32196-52.34523,51.32196h-21.91099v-102.63477Zm-206.07799-39.28887l-42.5301,143.00596-40.75325-142.99682-55.0105-.00914,58.20119,180.43599h73.44792l58.65843-180.43599h-52.01369Zm353.94098,180.43599h50.9678v-180.42685l-50.97988-.00914.01209,180.43599Zm142.85763-180.3709l-71.15944,180.30874h50.24893l11.25813-31.86902h84.21424l10.65736,31.86902h54.55651l-71.70269-180.32378-68.07305.01503Zm33.07983,32.89538l30.87008,84.47153h-62.71492l31.84484-84.47153Z"/>
  </g>
  <g>
    <path class="cls-1" d="m549.76173,1490.67901c-84.94203,0-149.33068-22.96316-193.11497-68.88949-43.80979-45.92632-65.71468-113.22203-65.71468-201.89988v-33.44385c0-57.35053,9.94518-106.45166,29.86104-147.34165,19.91586-40.87723,48.45087-72.20455,85.63054-93.98194,37.15417-21.76464,81.21896-32.65334,132.19437-32.65334h8.77216c52.02093,0,96.08573,11.15645,132.19437,33.4566,36.10865,22.30015,61.86411,54.68573,77.26639,97.15674l-83.6415,29.46578c-17.51881-53.61471-59.72207-80.42844-126.63527-80.42844h-7.16563c-49.9044,0-88.53759,16.71555-115.87408,50.17215-27.36199,33.44385-41.00474,80.9767-41.00474,142.56031v37.43467c0,125.83201,55.4635,188.75439,166.44149,188.75439h7.16563c23.89393,0,46.33433-2.25679,67.29571-6.77037,20.98688-4.51358,39.1687-11.0162,54.57098-19.5206v-128.2163h-129.82283l10.35319-76.46312h207.06372v248.48921c-24.96495,19.6481-55.20849,34.91013-90.78163,45.79882-35.57314,10.87595-74.61434,16.32029-117.0726,16.32029h-7.98164Z"/>
    <path class="cls-1" d="m982.224,1480.32583v-478.65635h-172.8421v-78.84742h437.25635v78.84742h-172.8421v478.65635h-91.57214Z"/>
    <path class="cls-1" d="m1516.61159,1490.67901c-80.17344,0-141.34904-23.89393-183.5778-71.68179-42.20326-47.78786-63.31764-114.94331-63.31764-201.49187v-33.4566c0-55.744,9.84318-103.92712,29.47853-144.54935,19.63535-40.60948,47.91536-71.93679,84.81452-93.98194,36.89916-22.01965,81.11696-33.04859,132.60238-33.04859h7.98164c53.62746,0,98.48277,12.08722,134.59142,36.23615,36.10865,24.17443,61.58361,58.2813,76.45037,102.34609l-84.40652,29.46578c-9.05266-29.73353-24.58244-51.89343-46.58934-66.50519-22.0579-14.59901-48.73138-21.89214-80.04594-21.89214h-7.16563c-48.85888,0-87.08406,16.19279-114.70106,48.57837-27.617,32.38558-41.41274,79.63793-41.41274,141.75705v37.43467c0,63.71289,13.41324,111.50075,40.21422,143.36357,26.82648,31.85007,65.43418,47.78786,115.89958,47.78786h7.16563c32.36008,0,59.97708-7.17838,82.82549-21.50964,22.82291-14.33126,38.7352-35.84089,47.78786-64.50341l82.82549,31.85007c-15.40228,42.48376-41.56575,75.40485-78.43941,98.76327-36.92466,23.37117-81.90747,35.03763-134.99942,35.03763h-7.98164Z"/>
  </g>
</svg>